{"title":"The.Disaster.Artist.2017.DVDScr.XVID.AC3.HQ.Hive-CM8","magnet":"magnet:?xt=urn:btih:16897871ea11886bc514344ddc7d994e9ec270c1&dn=The.Disaster.Artist.2017.DVDScr.XVID.AC3.HQ.Hive-CM8&tr=udp%3A%2F%2Ftracker.leechers-paradise.org%3A6969&tr=udp%3A%2F%2Fzer0day.ch%3A1337&tr=udp%3A%2F%2Fopen.demonii.com%3A1337&tr=udp%3A%2F%2Ftracker.coppersurfer.tk%3A6969&tr=udp%3A%2F%2Fexodus.desync.com%3A6969","uploader":"roflcopter2110","categoryP":"video","categoryS":"movies","size":"1520347136","seeders":"141","leechers":"137","description":"The.Disaster.Artist.2017.DVDScr.XVID.AC3.HQ.Hive-CM8\r\n <a href=\"\nhttps://i.imgur.com/PpBGkIb.jpg\" rel=\"nofollow\" target=\"_NEW\">\nhttps://i.imgur.com/PpBGkIb.jpg</a>\r\n\r\nThx Hive\r\n\r\nCM8 Doing It Right The First Time\r\n\r\nSource: a cool dude on the street\r\nthx\r\n\r\nNotes:\r\none more goodie - happy new year already, we dont want to disturb the festivals tomorrow\r\nDon&#xB4;t forget watching a scr is not like the real thing, you should still all go to the cinema and support the Producers, thx\r\nWe especially sharing this for the people who cant visit the cinema due to illness or because it is a limited release that doesnt make it to their country,\r\nso that they also can experience some award nominations.\r\n\r\nEncode:\r\nquality was nice, not much to do\r\nenjoy\r\n\r\nScreeners:\r\nWe are still missing suburbicon,downsizing,and phantom thread, anyone want to share for the collection?\r\nDon&apos;t post info public or on any blog its too risky, it has to be done safely and secure in private, and we have proven that we can do it.\r\nMsg us <a href=\"/cdn-cgi/l/email-protection\" class=\"__cf_email__\" data-cfemail=\"c7a4aaffa4b5a2b087afb2b4afaaa6aeabe9a4a8aa\">[email&#xA0;protected]</a> - we will respect your wishes\r\nif you want to share with us in private it will stay private\r\n\r\nVideo: 720x304 @bitrate 1600 2pass\r\nAudio: English Stereo\r\nSample: yes included\r\n\r\nGeneral\r\nComplete name: The.Disaster.Artist.2017.DVDScr.XVID.AC3.HQ.Hive-CM8.avi\r\nFormat: AVI\r\nFormat/Info: Audio Video Interleave\r\nFile size: 1.41 GiB\r\nDuration: 1h 43mn\r\nOverall bit rate: 1 944 Kbps\r\nWriting application: Nandub v1.0rc2\r\nWriting library: Nandub build 1853/release\r\n\r\nVideo\r\nID: 0\r\nFormat: MPEG-4 Visual\r\nFormat profile: Advanced <a href=\"/cdn-cgi/l/email-protection\" class=\"__cf_email__\" data-cfemail=\"a9fac0c4d9c5cce9e59c\">[email&#xA0;protected]</a>\r\nFormat settings, BVOP: 2\r\nFormat settings, QPel: Yes\r\nFormat settings, GMC: No warppoints\r\nFormat settings, Matrix: Default (H.263)\r\nMuxing mode: Packed bitstream\r\nCodec ID: XVID\r\nCodec ID/Hint: XviD\r\nDuration: 1h 43mn\r\nBit rate: 1 676 Kbps\r\nWidth: 720 pixels\r\nHeight: 304 pixels\r\nDisplay aspect ratio: 2.35:1\r\nFrame rate: 30.000 fps\r\nColor space: YUV\r\nChroma subsampling: 4:2:0\r\nBit depth: 8 bits\r\nScan type: Progressive\r\nCompression mode: Lossy\r\nBits/(Pixel*Frame): 0.255\r\nStream size: 1.21 GiB (86%)\r\nWriting library: XviD 1.2.1 (UTC 2008-12-04)\r\n\r\nAudio\r\nID: 1\r\nFormat: AC-3\r\nFormat/Info: Audio Coding 3\r\nMode extension: CM (complete main)\r\nFormat settings, Endianness: Big\r\nCodec ID: 2000\r\nDuration: 1h 43mn\r\nBit rate mode: Constant\r\nBit rate: 256 Kbps\r\nChannel(s): 2 channels\r\nChannel positions: Front: L R\r\nSampling rate: 48.0 KHz\r\nBit depth: 16 bits\r\nCompression mode: Lossy\r\nDelay relative to video: 6ms\r\nStream size: 189 MiB (13%)\r\nAlignment: Split accross interleaves\r\nInterleave, duration: 33 ms (1.00 video frame)\r\nInterleave, preload duration: 500 ms\r\n\r\nPlot\r\nWhen Greg Sestero, an aspiring film actor, meets the weird and mysterious Tommy Wiseau in an acting class, they form a unique friendship and travel to Hollywood to make their dreams come true.\r\n\r\nCOME FIND US WE DONT BITE\r\n\r\nScreens: <a href=\"\nhttps://i.imgur.com/4Cnuojm.png\" rel=\"nofollow\" target=\"_NEW\">\nhttps://i.imgur.com/4Cnuojm.png</a> <a href=\"\nhttps://i.imgur.com/X6R0Jye.png\" rel=\"nofollow\" target=\"_NEW\">\nhttps://i.imgur.com/X6R0Jye.png</a> <a href=\"\nhttps://i.imgur.com/kl10LWF.png\" rel=\"nofollow\" target=\"_NEW\">\nhttps://i.imgur.com/kl10LWF.png</a> <a href=\"\nhttps://i.imgur.com/6RpToTI.png\" rel=\"nofollow\" target=\"_NEW\">\nhttps://i.imgur.com/6RpToTI.png</a> <a href=\"\nhttps://i.imgur.com/dmRNYNz.png\" rel=\"nofollow\" target=\"_NEW\">\nhttps://i.imgur.com/dmRNYNz.png</a> <a href=\"\nhttps://i.imgur.com/ROQdRAg.png\" rel=\"nofollow\" target=\"_NEW\">\nhttps://i.imgur.com/ROQdRAg.png</a>","last_updated":"2017-12-31T12:03:25.178Z","parsed":{"xt":"urn:btih:16897871ea11886bc514344ddc7d994e9ec270c1","dn":"The.Disaster.Artist.2017.DVDScr.XVID.AC3.HQ.Hive-CM8","tr":["udp://exodus.desync.com:6969","udp://open.demonii.com:1337","udp://tracker.coppersurfer.tk:6969","udp://tracker.leechers-paradise.org:6969","udp://zer0day.ch:1337"],"infoHash":"16897871ea11886bc514344ddc7d994e9ec270c1","infoHashBuffer":{"type":"Buffer","data":[22,137,120,113,234,17,136,107,197,20,52,77,220,125,153,78,158,194,112,193]},"name":"The.Disaster.Artist.2017.DVDScr.XVID.AC3.HQ.Hive-CM8","announce":["udp://exodus.desync.com:6969","udp://open.demonii.com:1337","udp://tracker.coppersurfer.tk:6969","udp://tracker.leechers-paradise.org:6969","udp://zer0day.ch:1337"],"urlList":[]}}